<svg width="60" height="61" viewBox="0 0 60 61" fill="none" xmlns="http://www.w3.org/2000/svg">
<path fill-rule="evenodd" clip-rule="evenodd" d="M0 9.53125C0 7.07473 1.95875 5.08333 4.375 5.08333H55.625C58.0412 5.08333 60 7.07473 60 9.53125V51.4687C60 53.9253 58.0412 55.9167 55.625 55.9167H4.375C1.95875 55.9167 0 53.9253 0 51.4687V9.53125ZM4.375 8.89583C4.02982 8.89583 3.75 9.18031 3.75 9.53125V13.9792H13.75V8.89583H4.375ZM17.5 8.89583V13.9792H27.5V8.89583H17.5ZM31.25 8.89583V13.9792H56.25V9.53125C56.25 9.18031 55.9702 8.89583 55.625 8.89583H31.25ZM56.25 17.7917H3.75V51.4687C3.75 51.8197 4.02982 52.1042 4.375 52.1042H55.625C55.9702 52.1042 56.25 51.8197 56.25 51.4687V17.7917Z" fill="black"/>
</svg>
