<svg width="53" height="53" viewBox="0 0 53 53" fill="none" xmlns="http://www.w3.org/2000/svg">
<g clip-path="url(#clip0_290_763)">
<path fill-rule="evenodd" clip-rule="evenodd" d="M7.76167 45.2383C-2.58722 34.8894 -2.58722 18.1106 7.76167 7.76167C18.1106 -2.58722 34.8894 -2.58722 45.2383 7.76167C55.5872 18.1106 55.5872 34.8894 45.2383 45.2383C34.8894 55.5872 18.1106 55.5872 7.76167 45.2383ZM19.9754 16.462C19.0052 15.4918 17.4322 15.4918 16.462 16.462C15.4918 17.4322 15.4918 19.0053 16.462 19.9755L22.9865 26.5L16.462 33.0245C15.4918 33.9947 15.4918 35.5678 16.462 36.538C17.4322 37.5082 19.0052 37.5082 19.9754 36.538L26.5 30.0134L33.0245 36.538C33.9947 37.5082 35.5677 37.5082 36.5379 36.538C37.5081 35.5678 37.5081 33.9947 36.5379 33.0245L30.0134 26.5L36.5379 19.9755C37.5081 19.0053 37.5081 17.4323 36.5379 16.4621C35.5677 15.4918 33.9947 15.4918 33.0245 16.4621L26.5 22.9866L19.9754 16.462Z" fill="black"/>
</g>
<defs>
<clipPath id="clip0_290_763">
<rect width="53" height="53" fill="white"/>
</clipPath>
</defs>
</svg>
