<svg width="23" height="23" viewBox="0 0 23 23" fill="none" xmlns="http://www.w3.org/2000/svg">
<path fill-rule="evenodd" clip-rule="evenodd" d="M4.97547 1.46203C4.00526 0.491821 2.43224 0.491824 1.46203 1.46203C0.491824 2.43224 0.491822 4.00526 1.46203 4.97547L7.98657 11.5L1.46203 18.0245C0.491827 18.9947 0.491827 20.5678 1.46203 21.538C2.43224 22.5082 4.00526 22.5082 4.97547 21.538L11.5 15.0134L18.0245 21.538C18.9947 22.5082 20.5678 22.5082 21.538 21.538C22.5082 20.5678 22.5082 18.9947 21.538 18.0245L15.0134 11.5L21.538 4.97549C22.5082 4.00528 22.5082 2.43226 21.538 1.46205C20.5678 0.491843 18.9947 0.491844 18.0245 1.46205L11.5 7.98657L4.97547 1.46203Z" fill="#3F454B"/>
</svg>
