<svg width="53" height="53" viewBox="0 0 53 53" fill="none" xmlns="http://www.w3.org/2000/svg">
<path fill-rule="evenodd" clip-rule="evenodd" d="M3.31274 9.1095C3.31274 8.45061 3.5745 7.81868 4.0404 7.35278C4.5063 6.88688 5.13823 6.62512 5.79712 6.62512H47.2034C47.8622 6.62512 48.4943 6.88688 48.96 7.35278C49.4261 7.81868 49.6877 8.45061 49.6877 9.1095C49.6877 9.76839 49.4261 10.4003 48.96 10.8662C48.4943 11.3321 47.8622 11.5939 47.2034 11.5939H5.79712C5.13823 11.5939 4.5063 11.3321 4.0404 10.8662C3.5745 10.4003 3.31274 9.76839 3.31274 9.1095ZM3.31274 25.672C3.31274 25.0131 3.5745 24.3812 4.0404 23.9153C4.5063 23.4494 5.13823 23.1876 5.79712 23.1876H47.2034C47.8622 23.1876 48.4943 23.4494 48.96 23.9153C49.4261 24.3812 49.6877 25.0131 49.6877 25.672C49.6877 26.3309 49.4261 26.9628 48.96 27.4287C48.4943 27.8946 47.8622 28.1564 47.2034 28.1564H5.79712C5.13823 28.1564 4.5063 27.8946 4.0404 27.4287C3.5745 26.9628 3.31274 26.3309 3.31274 25.672ZM5.79712 39.7501C5.13823 39.7501 4.5063 40.0118 4.0404 40.4779C3.5745 40.9436 3.31274 41.5756 3.31274 42.2345C3.31274 42.8934 3.5745 43.5254 4.0404 43.9911C4.5063 44.4572 5.13823 44.7189 5.79712 44.7189H47.2034C47.8622 44.7189 48.4943 44.4572 48.96 43.9911C49.4261 43.5254 49.6877 42.8934 49.6877 42.2345C49.6877 41.5756 49.4261 40.9436 48.96 40.4779C48.4943 40.0118 47.8622 39.7501 47.2034 39.7501H5.79712Z" fill="black"/>
</svg>
