<svg width="50" height="50" viewBox="0 0 50 50" fill="none" xmlns="http://www.w3.org/2000/svg">
<path d="M46.309 0H3.69097C1.65278 0 0 1.65278 0 3.69097V46.309C0 48.3472 1.65278 50 3.69097 50H46.309C48.3472 50 50 48.3472 50 46.309V3.69097C50 1.65278 48.3472 0 46.309 0ZM14.9028 42.5972H7.38542V18.7153H14.9028V42.5937V42.5972ZM11.1458 15.4097C8.75347 15.4097 6.8125 13.5868 6.8125 11.0937C6.8125 8.60069 8.75347 6.77778 11.1458 6.77778C13.5382 6.77778 15.4792 8.60069 15.4792 11.0937C15.4792 13.5868 13.5382 15.4097 11.1458 15.4097ZM42.6181 42.6181H35.1007V29.5764C35.1007 25.7292 33.4653 24.5417 31.3542 24.5417C29.125 24.5417 26.9375 26.2187 26.9375 29.6736V42.6215H19.4201V18.7326H26.6493V22.0417H26.7465C27.4722 20.5729 30.0139 18.0625 33.8924 18.0625C38.0868 18.0625 42.6181 20.5521 42.6181 27.8437V42.6146V42.6181Z" fill="black"/>
</svg>
