<svg width="50" height="53" viewBox="0 0 50 53" fill="none" xmlns="http://www.w3.org/2000/svg">
<path fill-rule="evenodd" clip-rule="evenodd" d="M34.0421 4.09417C32.545 4.09417 31.1475 4.7627 30.2181 5.92911C29.3923 6.96602 29.0162 8.24007 29.1626 9.5407C29.2923 10.6892 29.798 11.7312 30.5854 12.5105C31.3518 13.269 31.3984 14.492 30.692 15.3067L14.5415 33.9301C13.8532 34.7237 12.6758 34.8676 11.8167 34.2629C10.9892 33.6804 10.0087 33.3674 9.00251 33.3674C6.28966 33.3674 4.09417 35.5356 4.09417 38.2902C4.09417 41.0657 6.40464 43.3103 9.06788 43.2143C10.0643 43.1784 10.9416 43.8655 11.1455 44.8415C11.3266 45.7086 11.7137 46.4932 12.2829 47.1313L12.2946 47.1445C13.1655 48.138 14.4276 48.7333 15.7672 48.7851C15.8349 48.7783 15.9032 48.7749 15.9719 48.7749C17.1589 48.7749 18.3074 48.3373 19.2216 47.5309C21.1224 45.8499 21.4007 42.9616 19.9017 40.9258C19.3341 40.1549 19.3765 39.0936 20.0039 38.3705L35.5702 20.4301C36.2475 19.6495 37.4005 19.4962 38.2583 20.0727C39.0632 20.6137 40.0293 20.9095 40.9975 20.9095C43.7023 20.9095 45.9058 18.7075 45.9058 15.9867C45.9058 13.266 43.7023 11.064 40.9975 11.064C39.8669 11.064 38.9504 10.1475 38.9504 9.01691C38.9504 7.50825 38.2746 6.1126 37.1108 5.17369L37.1091 5.17234C36.254 4.48096 35.1516 4.09417 34.0421 4.09417ZM27.0157 3.37825C28.7294 1.22717 31.3104 0 34.0421 0C36.076 0 38.0893 0.700257 39.6823 1.98788C41.3159 3.30604 42.4292 5.13147 42.8534 7.16178C46.9362 8.0194 50 11.6491 50 15.9867C50 20.9607 45.9714 25.0037 40.9975 25.0037C39.8305 25.0037 38.6745 24.7729 37.6015 24.3361L24.0643 39.938C25.7647 43.4775 25.02 47.87 21.9321 50.5994L21.9307 50.6006C20.3485 51.9965 18.3398 52.8054 16.2254 52.8654C16.1372 52.8771 16.0479 52.883 15.9579 52.883C13.3923 52.883 10.9248 51.7886 9.2219 49.8502C8.51968 49.0615 7.97841 48.1681 7.59919 47.2149C3.29247 46.5673 0 42.7494 0 38.2902C0 33.2664 4.03657 29.2733 9.00251 29.2733C10.2262 29.2733 11.4249 29.5241 12.5318 29.9984L26.4823 13.9119C25.729 12.7425 25.2527 11.4045 25.0942 9.99913L25.0941 9.99861C24.8232 7.59129 25.5322 5.24103 27.0155 3.37849L27.0157 3.37825Z" fill="black"/>
</svg>
