<svg width="50" height="50" viewBox="0 0 50 50" fill="none" xmlns="http://www.w3.org/2000/svg">
<path fill-rule="evenodd" clip-rule="evenodd" d="M11.718 4.6875C11.2865 4.6875 10.9368 5.03728 10.9368 5.46875V44.5312C10.9368 44.9627 11.2865 45.3125 11.718 45.3125H41.4055C41.837 45.3125 42.1868 44.9627 42.1868 44.5312V18.75H33.593C30.5727 18.75 28.1243 16.3016 28.1243 13.2812V4.6875H11.718ZM32.8118 4.87967V13.2812C32.8118 13.7127 33.1615 14.0625 33.593 14.0625H41.9946C41.9829 14.049 41.9707 14.0359 41.9579 14.0232L32.851 4.91632C32.8383 4.90362 32.8252 4.8914 32.8118 4.87967ZM6.24927 5.46875C6.24927 2.44844 8.69771 0 11.718 0H32.2986C33.749 0 35.14 0.576169 36.1656 1.60176L45.2725 10.7087C46.2981 11.7343 46.8743 13.1253 46.8743 14.5757V44.5312C46.8743 47.5516 44.4258 50 41.4055 50H11.718C8.69771 50 6.24927 47.5516 6.24927 44.5312V5.46875Z" fill="black"/>
</svg>
