<svg width="53" height="53" viewBox="0 0 53 53" fill="none" xmlns="http://www.w3.org/2000/svg">
<path fill-rule="evenodd" clip-rule="evenodd" d="M26.5003 1.65625C12.4691 1.65625 1.10449 13.0209 1.10449 27.0521C1.10449 38.2897 8.37405 47.7814 18.4689 51.1464C19.7387 51.3686 20.2149 50.6067 20.2149 49.9401C20.2149 49.3369 20.1831 47.337 20.1831 45.2101C13.8024 46.3847 12.1517 43.6546 11.6438 42.2261C11.3581 41.496 10.12 39.2421 9.04069 38.6389C8.15184 38.1628 6.88204 36.9882 9.00895 36.9565C11.0089 36.9247 12.4374 38.7977 12.9136 39.5595C15.1992 43.4007 18.8498 42.3213 20.3101 41.6547C20.5323 40.004 21.1989 38.8929 21.9291 38.258C16.2785 37.6231 10.374 35.4327 10.374 25.7188C10.374 22.957 11.3581 20.6714 12.977 18.8937C12.7231 18.2588 11.8342 15.6557 13.231 12.1638C13.231 12.1638 15.3579 11.4971 20.2149 14.7668C22.2465 14.1954 24.4052 13.9097 26.5638 13.9097C28.7225 13.9097 30.8811 14.1954 32.9128 14.7668C37.7697 11.4654 39.8966 12.1638 39.8966 12.1638C41.2934 15.6557 40.4045 18.2588 40.1506 18.8937C41.7696 20.6714 42.7537 22.9253 42.7537 25.7188C42.7537 35.4645 36.8174 37.6231 31.1668 38.258C32.0874 39.0516 32.881 40.5754 32.881 42.9562C32.881 46.3529 32.8493 49.083 32.8493 49.9401C32.8493 50.6067 33.3255 51.4003 34.5952 51.1464C44.6266 47.7814 51.8962 38.258 51.8962 27.0521C51.8962 13.0209 40.5315 1.65625 26.5003 1.65625Z" fill="black"/>
</svg>
