<svg width="54" height="54" viewBox="0 0 54 54" fill="none" xmlns="http://www.w3.org/2000/svg">
<path fill-rule="evenodd" clip-rule="evenodd" d="M38.8145 23.625C38.8145 25.6194 38.4216 27.5944 37.6582 29.437C36.8951 31.2796 35.7763 32.9539 34.3662 34.3643C32.9558 35.7743 31.2816 36.8931 29.4389 37.6566C27.5963 38.4197 25.6214 38.8125 23.6269 38.8125C21.6325 38.8125 19.6576 38.4197 17.8149 37.6566C15.9723 36.8931 14.298 35.7743 12.8877 34.3643C11.4774 32.9539 10.3588 31.2796 9.5955 29.437C8.83224 27.5944 8.43943 25.6194 8.43943 23.625C8.43943 19.597 10.0395 15.734 12.8877 12.8858C15.7359 10.0376 19.5989 8.4375 23.6269 8.4375C27.6549 8.4375 31.5179 10.0376 34.3662 12.8858C37.2144 15.734 38.8145 19.597 38.8145 23.625ZM36.047 39.6225C31.978 42.7815 26.858 44.2709 21.7295 43.7876C16.601 43.3046 11.8493 40.8851 8.44196 37.0217C5.03456 33.1584 3.22758 28.1417 3.38884 22.993C3.55013 17.8443 5.66754 12.9506 9.31001 9.30808C12.9525 5.66561 17.8462 3.54821 22.995 3.38692C28.1437 3.22565 33.1603 5.03263 37.0237 8.44003C40.887 11.8474 43.3066 16.599 43.7895 21.7276C44.2728 26.8561 42.7835 31.976 39.6245 36.045L49.8845 46.305C50.1332 46.5369 50.3327 46.8163 50.471 47.1268C50.6094 47.4373 50.6837 47.7724 50.6897 48.1123C50.6958 48.4522 50.633 48.7897 50.5058 49.1049C50.3786 49.4201 50.1889 49.7063 49.9486 49.9466C49.7083 50.1873 49.4221 50.3766 49.1069 50.5038C48.7916 50.6311 48.4541 50.6939 48.1143 50.6878C47.7744 50.6817 47.4389 50.6075 47.1288 50.4691C46.8183 50.3307 46.5388 50.1312 46.307 49.8825L36.047 39.6225Z" fill="#3F454B"/>
</svg>
