<svg width="60" height="60" viewBox="0 0 60 60" fill="none" xmlns="http://www.w3.org/2000/svg">
<g clip-path="url(#clip0_269_2133)">
<path fill-rule="evenodd" clip-rule="evenodd" d="M6.5625 13.125C6.04473 13.125 5.625 13.5447 5.625 14.0625V45.9375C5.625 46.4552 6.04473 46.875 6.5625 46.875H53.4375C53.9553 46.875 54.375 46.4552 54.375 45.9375V14.0625C54.375 13.5447 53.9553 13.125 53.4375 13.125H6.5625ZM0 14.0625C0 10.4381 2.93813 7.49998 6.5625 7.49998H53.4375C57.0619 7.49998 60 10.4381 60 14.0625V45.9375C60 49.5618 57.0619 52.5 53.4375 52.5H6.5625C2.93813 52.5 0 49.5619 0 45.9375V14.0625Z" fill="black"/>
<path d="M22.5 39.5942V20.4058C22.5 19.6771 23.295 19.227 23.9198 19.6019L39.9102 29.1961C40.5171 29.5602 40.5171 30.4398 39.9102 30.8039L23.9198 40.3981C23.295 40.773 22.5 40.3229 22.5 39.5942Z" fill="black"/>
</g>
<defs>
<clipPath id="clip0_269_2133">
<rect width="60" height="60" fill="white"/>
</clipPath>
</defs>
</svg>
